<svg width="939" height="315" viewBox="0 0 939 315" fill="none" xmlns="http://www.w3.org/2000/svg">
<g clip-path="url(#clip0)">
<path d="M650.03 288.44L649.39 291.12C649.76 291.12 650.07 291.11 650.34 291.08C650.61 291.05 650.89 291.01 651.2 290.95H652.1C654.93 290.95 657 291.41 658.3 292.33C659.6 293.25 660.24 294.35 660.24 295.62C660.24 295.85 660.23 296.08 660.2 296.31C660.17 296.54 660.13 296.77 660.07 297C659.59 298.44 658.32 299.77 656.27 300.98C654.22 302.19 651.54 302.79 648.22 302.79C646.95 302.79 645.58 302.68 644.11 302.45C642.63 302.22 641.05 301.85 639.36 301.33C638.7 301.1 638.18 300.81 637.82 300.46C637.46 300.11 637.22 299.77 637.1 299.42C637.1 299.36 637.09 299.29 637.06 299.21C637.03 299.12 637.01 299.05 637.01 298.99C637.01 298.53 637.21 298.11 637.6 297.73C637.99 297.36 638.49 297.14 639.09 297.08C639.45 297.08 639.84 297.15 640.27 297.29C640.69 297.43 641.11 297.65 641.53 297.94C642.19 298.35 642.89 298.68 643.61 298.94C644.34 299.2 645.09 299.38 645.87 299.5C646.17 299.5 646.47 299.52 646.77 299.54C647.07 299.57 647.37 299.58 647.68 299.58C649.06 299.58 650.28 299.32 651.34 298.8C652.39 298.28 652.92 297.53 652.92 296.55C652.92 295.4 652.65 294.62 652.1 294.21C651.56 293.81 650.89 293.61 650.11 293.61C649.93 293.61 649.75 293.62 649.57 293.65C649.38 293.68 649.2 293.69 649.02 293.69C648.84 293.69 648.69 293.71 648.57 293.74C648.45 293.77 648.3 293.81 648.12 293.87C647.82 293.87 647.52 293.9 647.22 293.96C646.92 294.02 646.65 294.04 646.4 294.04C645.98 294.04 645.65 293.97 645.4 293.83C645.16 293.69 645.04 293.41 645.04 293.01V292.84V292.67V292.63V292.5L645.77 288.44C641.91 287.8 638.55 286.07 635.69 283.25C632.83 280.42 631.4 276.56 631.4 271.66C631.4 271.2 631.42 270.72 631.45 270.23C631.48 269.74 631.53 269.23 631.58 268.72C632.24 262.95 634.75 257.75 639.08 253.1C643.42 248.46 648.96 245.97 655.71 245.62H656.61C656.91 245.62 657.21 245.65 657.52 245.71C660.47 246 663.17 246.83 665.61 248.22C668.06 249.61 669.28 251.22 669.28 253.06C669.28 254.68 668.9 255.84 668.15 256.56C667.4 257.28 666.54 257.64 665.57 257.64C664.73 257.7 663.91 257.48 663.13 256.99C662.35 256.5 661.77 255.88 661.41 255.13C660.75 253.46 659.91 252.26 658.89 251.54C657.86 250.82 656.75 250.46 655.54 250.46C654.88 250.46 654.21 250.55 653.55 250.72C652.88 250.89 652.22 251.15 651.56 251.5C649.03 252.83 646.63 255.04 644.37 258.16C642.11 261.27 640.68 264.59 640.08 268.11C639.96 268.8 639.87 269.45 639.81 270.05C639.75 270.66 639.72 271.28 639.72 271.91C639.72 275.6 640.71 278.45 642.71 280.48C644.7 282.5 647.17 283.5 650.12 283.5C651.45 283.5 652.82 283.3 654.23 282.9C655.64 282.5 657.08 281.86 658.52 280.99C659.25 280.53 659.97 280.03 660.69 279.48C661.41 278.93 662.14 278.31 662.86 277.62C663.28 277.22 663.66 276.94 663.99 276.8C664.32 276.66 664.64 276.58 664.94 276.58C665.42 276.58 665.81 276.77 666.11 277.14C666.42 277.51 666.57 277.93 666.57 278.39C666.57 278.56 666.55 278.72 666.53 278.87C666.5 279.01 666.45 279.17 666.39 279.35C666.33 279.52 666.26 279.68 666.17 279.82C666.08 279.96 665.94 280.12 665.76 280.3C662.93 283.01 660.14 285.05 657.4 286.4C654.66 287.76 652.2 288.44 650.03 288.44V288.44ZM588.58 264.56C588.33 265.65 588.16 266.69 588.03 267.67C587.91 268.65 587.85 269.57 587.85 270.44C587.85 274.82 589.02 278.1 591.38 280.25C593.73 282.42 596.47 283.52 599.6 283.58C600.08 283.58 600.6 283.56 601.14 283.49C601.69 283.43 602.2 283.35 602.68 283.23C605.93 282.54 608.96 280.81 611.77 278.04C614.57 275.27 616.33 271.5 617.06 266.71C617.19 266.02 617.27 265.33 617.33 264.63C617.4 263.94 617.42 263.3 617.42 262.73C617.36 258.29 616.18 254.99 613.89 252.82C611.6 250.66 608.91 249.58 605.84 249.58C605.29 249.58 604.75 249.61 604.21 249.66C603.67 249.72 603.13 249.8 602.59 249.92C599.7 250.61 596.94 252.18 594.32 254.63C591.7 257.08 589.79 260.41 588.58 264.62V264.56V264.56ZM581.43 263.18C583.06 257.64 585.91 253.39 589.97 250.42C594.04 247.45 598.39 245.71 603.03 245.19C603.45 245.13 603.89 245.09 604.34 245.06C604.79 245.03 605.26 245.02 605.74 245.02C610.86 245.02 615.4 246.52 619.34 249.52C623.29 252.52 625.26 256.93 625.26 262.76C625.26 263.85 625.18 265.02 624.99 266.26C624.81 267.5 624.54 268.79 624.18 270.11C622.55 275.82 619.72 280.17 615.68 283.17C611.64 286.17 607.33 287.9 602.75 288.36C602.33 288.42 601.89 288.46 601.44 288.49C600.99 288.52 600.52 288.53 600.04 288.53C594.91 288.59 590.35 287.11 586.34 284.08C582.33 281.05 580.33 276.6 580.33 270.72C580.33 269.56 580.42 268.37 580.6 267.13C580.78 265.89 581.05 264.61 581.42 263.28V263.18H581.43V263.18ZM514.28 257.73C515.84 254.79 517.56 252.41 519.43 250.59C521.3 248.78 523.2 247.46 525.12 246.65C526.09 246.19 527.05 245.86 528.02 245.66C528.98 245.45 529.92 245.36 530.82 245.36C534.14 245.36 536.96 246.44 539.27 248.6C541.59 250.76 542.78 253.4 542.84 256.51V257.16C542.84 257.36 542.81 257.58 542.75 257.81C544.31 254.81 546.11 252.39 548.13 250.55C550.15 248.7 552.21 247.35 554.33 246.49C555.29 246.09 556.22 245.8 557.13 245.62C558.03 245.45 558.94 245.36 559.84 245.36C562.86 245.36 565.45 246.38 567.62 248.43C569.79 250.48 570.87 253.43 570.87 257.3C570.93 257.88 570.92 258.51 570.83 259.2C570.74 259.89 570.64 260.58 570.51 261.27L566.99 278.22C566.92 278.51 566.9 278.74 566.9 278.91V279.43C566.9 280.35 567.1 280.96 567.49 281.24C567.88 281.53 568.29 281.7 568.71 281.76H568.97C569.39 281.82 569.75 281.9 570.05 282.02C570.35 282.14 570.5 282.48 570.5 283.06C570.5 283.29 570.44 283.52 570.32 283.75C570.2 283.98 570.02 284.21 569.78 284.44C569.24 284.96 568.49 285.48 567.52 286C566.56 286.52 565.56 286.92 564.54 287.21C563.94 287.38 563.36 287.51 562.82 287.6C562.28 287.69 561.76 287.73 561.28 287.73C560.07 287.73 559.24 287.38 558.79 286.69C558.34 286 558.09 285.19 558.02 284.27C558.02 283.81 558.07 283.36 558.16 282.93C558.25 282.5 558.32 282.08 558.38 281.68L563.44 259.1C563.56 258.75 563.62 258.39 563.62 258.02V257.03C563.68 254.9 563.13 253.32 561.95 252.31C560.77 251.3 559.31 250.77 557.56 250.71C556.96 250.71 556.36 250.77 555.75 250.88C555.15 250.99 554.51 251.2 553.85 251.49C552.58 251.95 551.35 252.66 550.14 253.61C548.94 254.56 547.88 255.76 546.97 257.2C546.67 257.72 546.37 258.28 546.07 258.89C545.77 259.49 545.47 260.17 545.17 260.92C544.44 262.48 543.74 264.21 543.04 266.11C542.35 268.01 541.73 269.94 541.19 271.9C540.53 274.21 539.95 276.46 539.47 278.65C538.98 280.84 538.65 282.77 538.47 284.45C538.47 285.78 538.11 286.54 537.39 286.74C536.66 286.94 535.61 287.04 534.22 287.04C532.77 287.04 531.81 286.94 531.33 286.74C530.85 286.54 530.6 285.77 530.6 284.45L535.57 259.8C535.69 259.34 535.77 258.86 535.79 258.38C535.82 257.89 535.84 257.44 535.84 257.04C535.84 254.68 535.28 252.96 534.17 251.89C533.05 250.82 531.69 250.29 530.05 250.29C529.57 250.29 529.06 250.33 528.51 250.42C527.97 250.5 527.46 250.64 526.97 250.81C525.82 251.16 524.69 251.71 523.58 252.45C522.47 253.2 521.48 254.09 520.64 255.13C517.99 258.47 516 262.19 514.67 266.29C513.34 270.39 512.32 274.56 511.59 278.83C511.41 279.81 511.25 280.76 511.1 281.68C510.95 282.6 510.82 283.52 510.69 284.45C510.69 285.78 510.29 286.54 509.51 286.74C508.73 286.94 507.46 287.04 505.71 287.04C504.8 287.04 504.07 286.97 503.49 286.82C502.93 286.68 502.64 286.15 502.64 285.22C502.64 285.04 502.65 284.83 502.68 284.57C502.71 284.31 502.75 284.04 502.81 283.75L507.78 259.79C507.96 259.04 508.08 258.35 508.14 257.71C508.2 257.08 508.23 256.53 508.23 256.07C508.23 254.74 508.02 253.84 507.59 253.35C507.17 252.86 506.72 252.56 506.24 252.44C506.11 252.38 505.99 252.34 505.87 252.31C505.75 252.28 505.63 252.27 505.51 252.27C505.15 252.16 504.85 252.03 504.6 251.88C504.36 251.74 504.24 251.46 504.24 251.06C504.24 250.77 504.42 250.41 504.78 249.98C505.14 249.55 505.6 249.07 506.14 248.55C506.56 248.2 507.04 247.84 507.58 247.47C508.12 247.09 508.67 246.76 509.21 246.48C509.69 246.25 510.19 246.04 510.7 245.87C511.22 245.7 511.68 245.61 512.11 245.61C513.13 245.61 513.84 246.04 514.23 246.91C514.62 247.78 514.81 248.93 514.81 250.37C514.81 251.18 514.77 252.07 514.68 253.05C514.59 254.03 514.48 255.07 514.37 256.17C514.31 256.46 514.26 256.73 514.24 256.99C514.21 257.25 514.2 257.53 514.2 257.81V257.73H514.28V257.73ZM462.04 265.95C465.6 265.66 469.13 265.23 472.66 264.65C476.19 264.07 479.55 262.95 482.74 261.27C483.58 260.81 484.29 260.32 484.87 259.8C485.44 259.28 485.93 258.76 486.36 258.24C486.72 257.78 486.99 257.29 487.18 256.77C487.36 256.25 487.45 255.76 487.45 255.3C487.51 253.86 486.85 252.63 485.46 251.62C484.07 250.61 482.3 250.08 480.13 250.02C479.11 250.02 478.04 250.15 476.92 250.41C475.8 250.67 474.64 251.12 473.43 251.75C470.24 253.08 467.72 255.02 465.89 257.59C464.05 260.15 462.77 262.97 462.04 266.02V265.95V265.95ZM461.32 270.01V270.88C461.26 275.26 462.41 278.3 464.76 280.01C467.11 281.71 469.85 282.56 472.99 282.56C473.41 282.56 473.85 282.55 474.3 282.52C474.75 282.49 475.22 282.48 475.7 282.48C478.17 282.19 480.56 281.58 482.89 280.66C485.21 279.74 487.06 278.73 488.45 277.63C488.75 277.34 489.1 277.09 489.49 276.9C489.88 276.7 490.26 276.57 490.62 276.51H491.26C491.74 276.45 492.13 276.52 492.43 276.73C492.73 276.93 492.92 277.23 492.97 277.64C492.97 277.87 492.89 278.16 492.75 278.5C492.6 278.85 492.34 279.22 491.98 279.62C489.81 282.04 487.27 283.93 484.38 285.29C481.49 286.64 478.53 287.49 475.52 287.84C475.04 287.9 474.56 287.94 474.08 287.97C473.6 288 473.12 288.02 472.64 288.02C467.75 288.02 463.44 286.66 459.71 283.95C455.97 281.24 454.1 277.17 454.1 271.75C454.1 271.29 454.12 270.8 454.15 270.28C454.18 269.76 454.22 269.24 454.28 268.73C455.12 262.27 457.55 257.25 461.55 253.68C465.56 250.11 469.89 247.74 474.53 246.59C475.73 246.3 476.94 246.07 478.15 245.9C479.35 245.73 480.53 245.64 481.67 245.64C485.17 245.64 488.18 246.29 490.71 247.59C493.24 248.89 494.63 250.72 494.87 253.08C494.93 253.31 494.96 253.53 494.96 253.73V254.38C494.96 259.11 491.82 262.92 485.56 265.8C479.3 268.69 471.22 270.12 461.33 270.12V270.01H461.32V270.01ZM387.83 278.92C387.76 278.69 387.72 278.47 387.69 278.27C387.66 278.07 387.65 277.88 387.65 277.71C387.65 276.39 388.03 275.46 388.78 274.94C389.53 274.42 390.39 274.16 391.36 274.16H391.63C392.59 274.22 393.5 274.49 394.34 274.98C395.18 275.47 395.6 276.12 395.6 276.93C395.9 279.23 396.84 280.91 398.4 281.95C399.97 282.98 401.69 283.53 403.55 283.59H404.27C406.38 283.42 408.31 282.69 410.06 281.38C411.81 280.08 412.68 278.37 412.68 276.24C412.68 274.63 412.15 273.36 411.1 272.43C410.04 271.51 408.58 270.67 406.71 269.92C406.23 269.75 405.72 269.56 405.17 269.36C404.63 269.16 404.05 268.94 403.45 268.71C403.09 268.59 402.72 268.45 402.32 268.28C401.93 268.11 401.52 267.93 401.1 267.76C398.93 266.78 396.94 265.38 395.13 263.56C393.32 261.75 392.42 259.48 392.42 256.77C392.42 256.31 392.45 255.82 392.51 255.3C392.57 254.78 392.66 254.26 392.78 253.74C393.44 250.91 395.22 248.75 398.11 247.25C401 245.75 404.14 244.92 407.51 244.74H408.42C411.8 244.74 414.86 245.48 417.6 246.94C420.34 248.41 421.81 250.68 421.99 253.73C421.99 254.48 421.61 255.14 420.86 255.72C420.11 256.3 419.28 256.59 418.38 256.59C417.66 256.59 416.96 256.38 416.3 255.94C415.63 255.51 415.15 254.77 414.85 253.73C414.31 251.95 413.43 250.68 412.19 249.93C410.96 249.18 409.65 248.81 408.26 248.81H407.72C405.79 248.92 404.01 249.57 402.39 250.76C400.76 251.94 399.95 253.34 399.95 254.96C399.95 255.36 400.01 255.78 400.13 256.21C400.24 256.64 400.46 257.06 400.76 257.46C401.18 258.15 401.78 258.82 402.57 259.45C403.35 260.09 404.38 260.69 405.64 261.26C405.88 261.38 406.13 261.49 406.41 261.61C406.67 261.73 406.96 261.84 407.27 261.96C407.87 262.25 408.47 262.51 409.07 262.74C409.67 262.97 410.28 263.23 410.88 263.52C413.29 264.56 415.5 265.86 417.52 267.41C419.53 268.97 420.55 271.22 420.55 274.16V274.77C420.55 278.98 418.81 282.18 415.35 284.37C411.89 286.56 408.04 287.71 403.83 287.83H403.1C399.61 287.89 396.38 287.18 393.43 285.71C390.48 284.24 388.61 282.01 387.83 279.01V278.92V278.92ZM350.51 265.95C354.06 265.66 357.61 265.23 361.13 264.65C364.65 264.07 368.02 262.95 371.21 261.27C372.06 260.81 372.76 260.32 373.33 259.8C373.9 259.28 374.4 258.76 374.82 258.24C375.18 257.78 375.46 257.29 375.64 256.77C375.82 256.25 375.91 255.76 375.91 255.3C375.97 253.86 375.31 252.63 373.92 251.62C372.53 250.61 370.75 250.08 368.59 250.02C367.56 250.02 366.49 250.15 365.38 250.41C364.27 250.67 363.11 251.12 361.9 251.75C358.71 253.08 356.19 255.02 354.35 257.59C352.51 260.15 351.23 262.97 350.51 266.02V265.95V265.95ZM349.79 270.01V270.88C349.73 275.26 350.87 278.3 353.23 280.01C355.58 281.71 358.32 282.56 361.46 282.56C361.88 282.56 362.31 282.55 362.77 282.52C363.22 282.49 363.69 282.48 364.17 282.48C366.64 282.19 369.03 281.58 371.36 280.66C373.68 279.74 375.53 278.73 376.92 277.63C377.23 277.34 377.57 277.09 377.96 276.9C378.35 276.7 378.73 276.57 379.09 276.51H379.72C380.2 276.45 380.6 276.52 380.9 276.73C381.2 276.93 381.38 277.23 381.44 277.64C381.44 277.87 381.37 278.16 381.22 278.5C381.07 278.85 380.82 279.22 380.45 279.62C378.28 282.04 375.75 283.93 372.86 285.29C369.97 286.64 367.01 287.49 364 287.84C363.52 287.9 363.03 287.94 362.56 287.97C362.07 288 361.59 288.02 361.11 288.02C356.23 288.02 351.92 286.66 348.19 283.95C344.45 281.24 342.58 277.17 342.58 271.75C342.58 271.29 342.59 270.8 342.62 270.28C342.65 269.76 342.69 269.24 342.75 268.73C343.59 262.27 346.02 257.25 350.02 253.68C354.03 250.11 358.36 247.74 363 246.59C364.21 246.3 365.41 246.07 366.61 245.9C367.82 245.73 369 245.64 370.14 245.64C373.63 245.64 376.64 246.29 379.18 247.59C381.71 248.89 383.1 250.72 383.34 253.08C383.4 253.31 383.43 253.53 383.43 253.73V254.38C383.43 259.11 380.29 262.92 374.03 265.8C367.76 268.69 359.69 270.12 349.8 270.12V270.01H349.79V270.01ZM300.45 268.63C301.11 262.92 303.61 257.75 307.95 253.1C312.29 248.46 317.84 245.97 324.58 245.62H325.48C325.79 245.62 326.09 245.65 326.39 245.71C329.34 246 332.04 246.83 334.48 248.22C336.92 249.61 338.14 251.22 338.14 253.06C338.14 254.68 337.76 255.84 337.01 256.56C336.26 257.28 335.4 257.64 334.44 257.64C333.6 257.7 332.78 257.48 332 256.99C331.22 256.5 330.64 255.88 330.28 255.13C329.62 253.46 328.77 252.26 327.75 251.54C326.72 250.82 325.61 250.46 324.4 250.46C323.74 250.46 323.08 250.55 322.41 250.72C321.74 250.89 321.08 251.15 320.42 251.5C317.89 252.83 315.49 255.04 313.23 258.16C310.97 261.27 309.54 264.59 308.94 268.11C308.82 268.8 308.73 269.48 308.67 270.14C308.61 270.8 308.58 271.45 308.58 272.09C308.58 275.78 309.54 278.61 311.47 280.57C313.39 282.53 315.78 283.51 318.61 283.51C320.06 283.51 321.58 283.27 323.18 282.78C324.78 282.29 326.39 281.53 328.02 280.49C328.69 280.09 329.31 279.65 329.92 279.19C330.52 278.73 331.13 278.21 331.73 277.63C332.21 277.17 332.65 276.84 333.04 276.64C333.43 276.44 333.75 276.34 333.99 276.34C334.47 276.28 334.8 276.44 334.98 276.82C335.17 277.2 335.25 277.61 335.25 278.07V278.67C335.19 278.96 335.12 279.25 335.03 279.53C334.94 279.82 334.8 280.08 334.62 280.31C332.75 282.33 330.63 283.97 328.25 285.24C325.87 286.51 323.44 287.37 320.97 287.83C320.25 288 319.54 288.12 318.85 288.18C318.16 288.24 317.45 288.27 316.73 288.27C312.33 288.27 308.5 286.91 305.25 284.2C301.99 281.49 300.34 277.25 300.27 271.48C300.27 271.02 300.29 270.56 300.32 270.1C300.35 269.64 300.4 269.18 300.46 268.72V268.63H300.45V268.63ZM257.43 264.56C257.19 265.65 257.01 266.69 256.89 267.67C256.77 268.65 256.71 269.57 256.71 270.44C256.71 274.82 257.88 278.1 260.23 280.25C262.58 282.42 265.32 283.52 268.46 283.58C268.94 283.58 269.45 283.56 269.99 283.49C270.54 283.43 271.05 283.35 271.53 283.23C274.78 282.54 277.81 280.81 280.62 278.04C283.42 275.27 285.18 271.5 285.91 266.71C286.03 266.02 286.12 265.33 286.18 264.63C286.24 263.94 286.27 263.3 286.27 262.73C286.21 258.29 285.03 254.99 282.74 252.82C280.45 250.66 277.77 249.58 274.7 249.58C274.16 249.58 273.61 249.61 273.07 249.66C272.53 249.72 271.99 249.8 271.45 249.92C268.55 250.61 265.8 252.18 263.18 254.63C260.56 257.08 258.64 260.41 257.44 264.62V264.56H257.43V264.56ZM250.28 263.18C251.91 257.64 254.76 253.39 258.82 250.42C262.89 247.45 267.25 245.71 271.88 245.19C272.3 245.13 272.74 245.09 273.19 245.06C273.64 245.03 274.11 245.02 274.59 245.02C279.71 245.02 284.25 246.52 288.19 249.52C292.14 252.52 294.11 256.93 294.11 262.76C294.11 263.85 294.02 265.02 293.84 266.26C293.66 267.5 293.39 268.79 293.02 270.11C291.4 275.82 288.56 280.17 284.52 283.17C280.48 286.17 276.18 287.9 271.59 288.36C271.17 288.42 270.73 288.46 270.28 288.49C269.83 288.52 269.36 288.53 268.88 288.53C263.75 288.59 259.19 287.11 255.18 284.08C251.18 281.05 249.17 276.6 249.17 270.72C249.17 269.56 249.26 268.37 249.44 267.13C249.62 265.89 249.89 264.61 250.25 263.28V263.18H250.28V263.18ZM193.8 276.15C193.74 276.49 193.71 276.8 193.71 277.06V277.88C193.71 280.18 194.43 281.63 195.88 282.2C197.32 282.78 199.5 283.06 202.38 283.06C210.94 283.06 218.32 280.98 224.53 276.84C230.74 272.69 234.75 266.34 236.55 257.81C236.86 256.37 237.09 255 237.28 253.71C237.46 252.41 237.55 251.13 237.55 249.86C237.55 243.29 235.45 238.1 231.27 234.29C227.08 230.48 221.31 228.58 213.96 228.58H212.33C209.5 228.58 207.1 228.96 205.14 229.71C203.18 230.46 202.02 232.36 201.66 235.42L193.8 276.15V276.15ZM185.3 277.54L193.8 231.87V231.7C193.8 231.64 193.83 231.58 193.89 231.53V231.27V231.1C193.89 230.06 193.63 229.41 193.12 229.15C192.61 228.89 192.05 228.7 191.45 228.59H191.36C190.76 228.47 190.19 228.26 189.64 227.94C189.1 227.62 188.83 226.92 188.83 225.82C188.83 224.84 189.34 224.26 190.37 224.09C191.39 223.92 192.78 223.83 194.53 223.83L217.31 223.75C224.84 223.81 231.53 226.2 237.38 230.93C243.23 235.66 246.15 241.97 246.15 249.87C246.15 250.62 246.12 251.37 246.06 252.12C246 252.87 245.91 253.65 245.79 254.45C244.4 264.02 240.14 271.85 232.99 277.93C225.85 284.02 217.31 287.06 207.36 287.06H185.3C182.11 287.06 180.12 286.99 179.34 286.84C178.55 286.7 178.16 286.11 178.16 285.07C178.16 284.61 178.33 284.26 178.66 284.03C178.99 283.8 179.43 283.6 179.97 283.43C180.27 283.31 180.57 283.22 180.88 283.13C181.18 283.05 181.49 282.94 181.79 282.83C182.57 282.49 183.31 281.93 184 281.18C184.69 280.43 185.13 279.25 185.31 277.63V277.54H185.3V277.54ZM770.49 278.92C770.43 278.69 770.38 278.47 770.35 278.27C770.32 278.07 770.31 277.88 770.31 277.71C770.31 276.39 770.69 275.46 771.44 274.94C772.19 274.42 773.05 274.16 774.02 274.16H774.29C775.25 274.22 776.16 274.49 777 274.98C777.84 275.47 778.27 276.12 778.27 276.93C778.57 279.23 779.5 280.91 781.07 281.95C782.64 282.98 784.35 283.53 786.22 283.59H786.94C789.05 283.42 790.98 282.69 792.73 281.38C794.48 280.08 795.35 278.37 795.35 276.24C795.35 274.63 794.82 273.36 793.77 272.43C792.71 271.51 791.25 270.67 789.38 269.92C788.9 269.75 788.38 269.56 787.84 269.36C787.3 269.16 786.72 268.94 786.12 268.71C785.76 268.59 785.39 268.45 784.99 268.28C784.6 268.11 784.2 267.93 783.77 267.76C781.6 266.78 779.61 265.38 777.8 263.56C775.99 261.75 775.09 259.48 775.09 256.77C775.09 256.31 775.12 255.82 775.18 255.3C775.24 254.78 775.33 254.26 775.45 253.74C776.12 250.91 777.9 248.75 780.78 247.25C783.68 245.75 786.81 244.92 790.19 244.74H791.09C794.47 244.74 797.52 245.48 800.27 246.94C803.01 248.41 804.48 250.68 804.65 253.73C804.65 254.48 804.27 255.14 803.52 255.72C802.77 256.3 801.94 256.59 801.04 256.59C800.32 256.59 799.62 256.38 798.96 255.94C798.3 255.51 797.81 254.77 797.51 253.73C796.97 251.95 796.08 250.68 794.84 249.93C793.6 249.18 792.3 248.81 790.91 248.81H790.37C788.44 248.92 786.66 249.57 785.04 250.76C783.41 251.94 782.6 253.34 782.6 254.96C782.6 255.36 782.67 255.78 782.78 256.21C782.9 256.64 783.11 257.06 783.41 257.46C783.83 258.15 784.43 258.82 785.22 259.45C786 260.09 787.03 260.69 788.29 261.26C788.54 261.38 788.79 261.49 789.06 261.61C789.33 261.73 789.62 261.84 789.92 261.96C790.52 262.25 791.13 262.51 791.73 262.74C792.34 262.97 792.93 263.23 793.54 263.52C795.95 264.56 798.17 265.86 800.19 267.41C802.2 268.97 803.22 271.22 803.22 274.16V274.77C803.22 278.98 801.49 282.18 798.02 284.37C794.55 286.56 790.71 287.71 786.49 287.83H785.77C782.28 287.89 779.05 287.18 776.1 285.71C773.15 284.24 771.28 282.01 770.5 279.01V278.92H770.49V278.92ZM733.17 265.95C736.72 265.66 740.27 265.23 743.79 264.65C747.32 264.07 750.68 262.95 753.88 261.27C754.72 260.81 755.43 260.32 756 259.8C756.57 259.28 757.07 258.76 757.49 258.24C757.85 257.78 758.12 257.29 758.31 256.77C758.49 256.25 758.57 255.76 758.57 255.3C758.63 253.86 757.97 252.63 756.58 251.62C755.19 250.61 753.42 250.08 751.25 250.02C750.22 250.02 749.15 250.15 748.04 250.41C746.92 250.67 745.76 251.12 744.56 251.75C741.37 253.08 738.85 255.02 737.01 257.59C735.17 260.15 733.89 262.97 733.17 266.02V265.95V265.95ZM732.45 270.01V270.88C732.39 275.26 733.53 278.3 735.88 280.01C738.23 281.71 740.97 282.56 744.1 282.56C744.52 282.56 744.96 282.55 745.41 282.52C745.86 282.49 746.32 282.48 746.81 282.48C749.28 282.19 751.68 281.58 754 280.66C756.32 279.74 758.17 278.73 759.56 277.63C759.86 277.34 760.21 277.09 760.6 276.9C760.99 276.7 761.37 276.57 761.73 276.51H762.36C762.84 276.45 763.24 276.52 763.54 276.73C763.84 276.93 764.02 277.23 764.08 277.64C764.08 277.87 764 278.16 763.85 278.5C763.7 278.85 763.44 279.22 763.08 279.62C760.91 282.04 758.38 283.93 755.48 285.29C752.59 286.64 749.64 287.49 746.62 287.84C746.13 287.9 745.66 287.94 745.18 287.97C744.69 288 744.21 288.02 743.73 288.02C738.85 288.02 734.54 286.66 730.8 283.95C727.06 281.24 725.2 277.17 725.2 271.75C725.2 271.29 725.21 270.8 725.24 270.28C725.27 269.76 725.31 269.24 725.38 268.73C726.22 262.27 728.65 257.25 732.66 253.68C736.67 250.11 740.99 247.74 745.63 246.59C746.84 246.3 748.04 246.07 749.25 245.9C750.46 245.73 751.63 245.64 752.78 245.64C756.27 245.64 759.28 246.29 761.82 247.59C764.36 248.89 765.74 250.72 765.98 253.08C766.04 253.31 766.07 253.53 766.07 253.73V254.38C766.07 259.11 762.93 262.92 756.67 265.8C750.4 268.69 742.33 270.12 732.44 270.12V270.01H732.45V270.01ZM691.69 235.93C692.53 234.72 693.4 233.78 694.27 233.12C695.14 232.46 696.03 231.95 696.94 231.61C697.36 231.49 697.8 231.39 698.25 231.31C698.71 231.22 699.14 231.18 699.57 231.18C700.59 231.18 701.58 231.31 702.55 231.57C703.51 231.83 704.48 232.1 705.44 232.39C706.35 232.68 707.23 232.95 708.11 233.21C708.98 233.47 709.78 233.6 710.51 233.6C711.17 233.6 711.77 233.47 712.31 233.21C712.86 232.95 713.34 232.54 713.76 231.96C713.94 231.67 714.14 231.44 714.34 231.27C714.55 231.1 714.78 230.98 715.02 230.92C715.14 230.86 715.24 230.82 715.33 230.79C715.42 230.76 715.53 230.75 715.65 230.75C716.01 230.75 716.31 230.85 716.56 231.05C716.8 231.25 716.92 231.55 716.92 231.96C716.92 232.13 716.89 232.34 716.83 232.57C716.77 232.8 716.68 233.06 716.56 233.35C715.41 235.48 714.1 236.95 712.62 237.76C711.14 238.57 709.63 238.97 708.06 238.97H707.47C707.27 238.97 707.07 238.94 706.88 238.88C705.98 238.82 705.09 238.68 704.22 238.45C703.34 238.22 702.49 237.99 701.64 237.76C700.67 237.47 699.74 237.2 698.83 236.94C697.92 236.68 697.15 236.55 696.48 236.55C696.06 236.55 695.69 236.62 695.35 236.77C695.02 236.91 694.73 237.13 694.49 237.42C694.25 237.82 693.97 238.18 693.63 238.5C693.3 238.81 692.95 239.06 692.59 239.24C692.35 239.35 692.12 239.44 691.91 239.5C691.7 239.56 691.51 239.59 691.33 239.59C691.09 239.59 690.88 239.52 690.69 239.37C690.51 239.23 690.42 239.01 690.42 238.72C690.42 238.43 690.53 238.06 690.74 237.6C690.95 237.14 691.27 236.62 691.69 236.04V235.93V235.93ZM682.38 264.56C682.14 265.65 681.96 266.69 681.84 267.67C681.72 268.65 681.66 269.57 681.66 270.44C681.66 274.82 682.84 278.1 685.19 280.25C687.54 282.42 690.28 283.52 693.41 283.58C693.89 283.58 694.41 283.56 694.95 283.49C695.49 283.43 696.01 283.35 696.49 283.23C699.75 282.54 702.77 280.81 705.57 278.04C708.38 275.27 710.14 271.5 710.86 266.71C710.98 266.02 711.07 265.33 711.13 264.63C711.19 263.94 711.22 263.3 711.22 262.73C711.16 258.29 709.98 254.99 707.7 252.82C705.41 250.66 702.72 249.58 699.65 249.58C699.11 249.58 698.57 249.61 698.02 249.66C697.47 249.72 696.94 249.8 696.39 249.92C693.5 250.61 690.74 252.18 688.12 254.63C685.5 257.08 683.59 260.41 682.38 264.62V264.56V264.56ZM675.24 263.18C676.87 257.64 679.72 253.39 683.78 250.42C687.85 247.45 692.2 245.71 696.85 245.19C697.27 245.13 697.71 245.09 698.16 245.06C698.61 245.03 699.07 245.02 699.56 245.02C704.68 245.02 709.21 246.52 713.16 249.52C717.11 252.52 719.08 256.93 719.08 262.76C719.08 263.85 718.99 265.02 718.81 266.26C718.63 267.5 718.36 268.79 717.99 270.11C716.37 275.82 713.53 280.17 709.49 283.17C705.46 286.17 701.14 287.9 696.56 288.36C696.14 288.42 695.7 288.46 695.25 288.49C694.8 288.52 694.33 288.53 693.85 288.53C688.72 288.59 684.16 287.11 680.15 284.08C676.14 281.05 674.14 276.6 674.14 270.72C674.14 269.56 674.23 268.37 674.42 267.13C674.6 265.89 674.87 264.61 675.23 263.28V263.18H675.24V263.18Z" fill="white"/>
<path fill-rule="evenodd" clip-rule="evenodd" d="M416.33 169.64L415.5 167.92L414.74 166.21L414.03 164.46L413.35 162.67L412.75 160.89L412.2 159.14L411.68 157.31L411.22 155.5L410.81 153.68L410.44 151.81L410.13 149.96L409.86 148.12L409.64 146.27L409.46 144.43L409.39 143.51H401.86L392.54 203.76H312.11L313.44 195.18L312.99 195.41L310.84 196.5L308.68 197.54L306.5 198.54L304.31 199.49L302.1 200.4L299.87 201.25L297.63 202.06L295.38 202.82L293.11 203.53L290.82 204.18L288.52 204.79L286.2 205.33L283.87 205.81L281.52 206.24L279.17 206.61L276.79 206.92L274.41 207.16L272.01 207.34L269.59 207.45L267.18 207.5L264.74 207.47L262.3 207.38L259.76 207.21L257.65 206.98L255.67 206.7L253.72 206.38L251.81 206.01L249.91 205.59L248.05 205.12L246.22 204.61L244.43 204.05L242.66 203.45L240.93 202.8L239.21 202.1L237.54 201.36L235.91 200.58L234.29 199.76L232.72 198.89L231.17 197.98L229.66 197.04L228.18 196.06L226.73 195.03L225.32 193.98L225.01 193.73L223.46 203.76H141.87L150.82 145.87H103.71L94.75 203.76H11.4L26.1 108.77L26.4 106.83L26.73 104.87L27.05 102.95L27.38 101.04L27.73 99.15L28.08 97.3L28.45 95.45L28.82 93.63L29.2 91.85L29.58 90.07L29.99 88.32L30.39 86.61L30.8 84.92L31.23 83.22L31.66 81.56L32.12 79.88L32.61 78.16L33.14 76.41L33.7 74.65L34.27 72.91L34.88 71.15L35.51 69.4L36.15 67.66L36.83 65.9L37.54 64.12L38.27 62.35L39 60.63L39.78 58.87L40.6 57.07L41.41 55.31L42.25 53.54L43.25 51.52L44.53 49.09L46.07 46.47L47.75 43.93L49.52 41.49L51.41 39.14L53.39 36.89L55.47 34.73L57.66 32.65L59.92 30.69L62.23 28.83L64.63 27.06L67.09 25.38L69.59 23.81L72.15 22.31L74.77 20.9L77.37 19.61L78.96 18.87L80.53 18.18L82.08 17.54L83.64 16.93L85.26 16.34L86.86 15.79L88.45 15.27L90.08 14.77L91.72 14.31L93.37 13.87L95.04 13.45L96.71 13.06L98.38 12.69L100.11 12.34L101.86 12.01L103.57 11.72L105.29 11.44L107.07 11.18L108.85 10.94L110.66 10.72L112.47 10.52L114.29 10.34L116.14 10.18L118 10.02L119.9 9.90001L121.8 9.79001L123.73 9.70001L125.67 9.62001L127.61 9.57001L129.59 9.53001L131.61 9.50001L133.59 9.49001H253.52L246.45 55.19L246.5 55.17L248.44 54.15L250.41 53.17L252.39 52.23L254.39 51.32L256.41 50.46L258.46 49.64L260.52 48.87L262.61 48.13L264.71 47.45L266.84 46.81L268.99 46.22L271.16 45.69L273.35 45.2L275.57 44.77L277.81 44.39L280.06 44.07L282.34 43.81L284.63 43.61L286.95 43.46L289.29 43.38L291.65 43.36L294.13 43.4L296.42 43.55L298.59 43.75L300.73 44L302.85 44.31L304.95 44.67L307.02 45.09L309.06 45.56L311.07 46.09L313.06 46.67L315.02 47.29L316.95 47.97L318.85 48.71L320.71 49.49L322.55 50.32L324.35 51.2L326.12 52.13L327.85 53.11L329.55 54.14L331.21 55.21L332.83 56.33L334.42 57.49L334.71 57.72L336.34 47.17H405.19L407.09 47.19L409.11 47.24L411.1 47.34L413.06 47.48L415.05 47.66L417 47.9L418.93 48.18L420.85 48.53L422.83 48.94L424.83 49.44L426.84 50.02L428.86 50.69L430.91 51.48L432.92 52.38L435.01 53.42L437.22 54.72L440.37 56.87L443.6 59.58L445.71 61.77L447.38 60.61L449.44 59.26L451.53 57.99L453.64 56.78L455.81 55.64L458.05 54.55L460.34 53.55L462.61 52.65L464.97 51.83L467.22 51.14L469.16 50.62L470.96 50.17L472.77 49.75L474.58 49.36L476.43 49L478.28 48.68L480.11 48.39L481.95 48.13L483.8 47.9L485.66 47.71L487.52 47.54L489.4 47.41L491.3 47.3L493.18 47.23L495.06 47.19L496.85 47.17H566.93L566.58 49.41L569.04 48.85L571.98 48.32L574.92 47.9L577.87 47.57L580.85 47.34L583.85 47.21L586.66 47.17H655.38L661.21 9.49001H741.83L736 47.17H808.05L809.53 47.18L811.09 47.21L812.65 47.26L814.21 47.33L815.75 47.42L817.27 47.53L818.78 47.66L820.3 47.81L821.83 47.99L823.31 48.19L824.81 48.41L826.34 48.67L827.75 48.93L829.26 49.23L830.75 49.55L832.36 49.93L834.38 50.48L836.6 51.2L838.77 52.03L840.86 52.94L842.87 53.94L844.84 55.03L846.77 56.21L848.59 57.44L849.31 57.97L856.81 9.49001H938.4L908.35 203.76H760.37L757.81 203.71L755.03 203.56L752.23 203.3L749.44 202.93L746.65 202.43L743.88 201.79L741.26 201.05L740.84 203.76H692.7L690.08 203.71L687.24 203.55L684.4 203.28L681.54 202.88L678.67 202.34L675.84 201.66L673.02 200.83L670.18 199.81L667.39 198.62L664.61 197.23L661.95 195.66L659.34 193.9L656.85 191.92L654.5 189.8L652.29 187.49L650.3 185.09L648.93 183.19L648.9 183.23L647.41 184.93L645.8 186.59L644.19 188.12L642.56 189.55L640.91 190.91L639.25 192.2L637.56 193.44L635.82 194.65L633.87 195.96L632.25 196.96L630.47 197.94L628.7 198.83L626.84 199.67L625.01 200.39L623.21 201.03L621.39 201.59L619.55 202.09L617.7 202.51L615.92 202.86L614.1 203.15L612.29 203.38L610.52 203.54L608.73 203.67L606.96 203.74L605.37 203.76H479.87L477.9 203.74L475.83 203.68L473.8 203.6L471.76 203.47L469.73 203.3L467.7 203.09L465.69 202.84L463.72 202.55L461.71 202.21L459.76 201.83L457.83 201.41L455.87 200.93L453.94 200.4L452.03 199.82L450.16 199.2L448.24 198.5L446.36 197.74L444.52 196.94L442.72 196.09L440.92 195.17L439.12 194.16L437.38 193.11L435.7 192.02L433.99 190.82L432.33 189.56L430.74 188.26L429.22 186.92L427.71 185.5L426.26 184L424.84 182.45L423.54 180.88L422.31 179.33L421.13 177.7L420.08 176.15L419.07 174.57L418.08 172.92L417.18 171.29L416.33 169.64Z" fill="white"/>
<path fill-rule="evenodd" clip-rule="evenodd" d="M865.03 19.08H927.22L900.13 194.17H760.46L758.15 194.13L755.72 194L753.31 193.77L750.93 193.45L748.57 193.02L746.25 192.49L743.96 191.84L741.69 191.06L739.44 190.15L733.67 187.39L732.62 194.16H692.8L690.44 194.12L687.97 193.98L685.52 193.74L683.09 193.4L680.68 192.95L678.32 192.39L675.99 191.7L673.68 190.88L671.42 189.91L669.2 188.8L667.08 187.55L665.02 186.15L663.05 184.6L661.2 182.92L659.47 181.1L657.89 179.2L656.47 177.23L655.18 175.2L654.04 173.1L653.03 170.95L650.35 164.2L645.95 171.1L644.91 172.65L643.84 174.16L642.73 175.63L641.58 177.04L640.36 178.43L639.06 179.77L637.72 181.04L636.35 182.25L634.93 183.41L633.47 184.54L631.97 185.64L630.42 186.73L628.69 187.88L627.4 188.68L626 189.46L624.59 190.17L623.12 190.83L621.66 191.41L620.2 191.93L618.73 192.38L617.23 192.78L615.72 193.12L614.24 193.41L612.74 193.65L611.24 193.84L609.74 193.98L608.22 194.08L606.71 194.13L605.31 194.15H479.91L478.07 194.13L476.17 194.08L474.31 194L472.45 193.89L470.61 193.74L468.78 193.56L466.98 193.33L465.21 193.07L463.43 192.77L461.7 192.44L459.99 192.07L458.28 191.65L456.6 191.19L454.94 190.69L453.31 190.14L451.67 189.55L450.07 188.9L448.5 188.22L446.96 187.49L445.45 186.72L443.94 185.88L442.48 185L441.07 184.08L439.65 183.09L438.28 182.04L436.96 180.96L435.69 179.84L434.44 178.66L433.24 177.43L432.07 176.15L430.99 174.85L429.96 173.55L428.98 172.2L428.09 170.88L427.23 169.54L426.41 168.15L425.64 166.76L424.91 165.36L424.21 163.9L423.56 162.44L422.95 160.95L422.37 159.42L421.86 157.9L421.39 156.38L420.95 154.82L420.55 153.26L420.2 151.68L419.88 150.07L419.61 148.47L419.37 146.86L419.18 145.23L419.02 143.6L418.9 141.94L418.82 140.29L418.77 138.63L418.73 133.91H393.65L384.33 194.16H323.3L326.09 176.13C305.81 190.54 283.9 199.53 260.62 197.65C241.58 195.74 228.42 186.71 218.49 173.17L215.24 194.16H153.05L162.01 136.27H95.49L86.53 194.16H22.58L35.57 110.23L35.87 108.33L36.18 106.43L36.5 104.56L36.82 102.71L37.16 100.89L37.5 99.1L37.85 97.32L38.21 95.57L38.58 93.85L38.95 92.15L39.33 90.47L39.72 88.83L40.11 87.21L40.52 85.6L40.93 84.02L41.36 82.44L41.82 80.83L42.3 79.21L42.82 77.57L43.35 75.94L43.92 74.3L44.51 72.66L45.11 71.03L45.75 69.37L46.42 67.7L47.1 66.04L47.81 64.4L48.53 62.74L49.3 61.04L50.08 59.37L50.88 57.69L51.78 55.85L52.9 53.74L54.21 51.53L55.64 49.37L57.14 47.3L58.75 45.3L60.45 43.37L62.24 41.51L64.12 39.73L66.07 38.03L68.08 36.41L70.17 34.86L72.34 33.38L74.56 31.99L76.84 30.66L79.19 29.4L81.55 28.22L82.92 27.58L84.29 26.98L85.67 26.41L87.05 25.87L88.48 25.35L89.91 24.86L91.34 24.39L92.81 23.94L94.29 23.52L95.79 23.12L97.32 22.74L98.85 22.38L100.39 22.04L101.97 21.72L103.58 21.42L105.17 21.15L106.78 20.89L108.43 20.65L110.09 20.42L111.79 20.21L113.5 20.02L115.22 19.85L116.97 19.7L118.73 19.56L120.53 19.44L122.34 19.34L124.18 19.25L126.03 19.18L127.9 19.12L129.8 19.08L131.73 19.05H242.38L233.77 74.74C251.75 61.3 271.03 52.26 293.78 52.95C314.61 54.03 331.24 63.59 341.26 78.36L344.61 56.73H405.21L406.98 56.74L408.8 56.79L410.58 56.88L412.33 57L414.08 57.16L415.78 57.37L417.45 57.62L419.09 57.91L420.75 58.26L422.4 58.67L424.04 59.14L425.67 59.69L427.28 60.31L428.87 61.02L430.48 61.83L432.14 62.8L434.63 64.49L437.11 66.57L439.41 68.95L441.43 71.6L443.74 75.48L447.46 72.45L449.23 71.08L451 69.77L452.79 68.52L454.61 67.33L456.45 66.2L458.31 65.14L460.19 64.15L462.11 63.22L464.06 62.37L466 61.6L467.99 60.9L469.91 60.32L471.63 59.85L473.25 59.44L474.89 59.06L476.54 58.71L478.21 58.38L479.88 58.09L481.56 57.83L483.24 57.6L484.92 57.39L486.62 57.21L488.32 57.05L490.04 56.93L491.77 56.83L493.5 56.76L495.23 56.72L496.91 56.71H555.77L554.68 63.74L561.06 61.09L563.49 60.21L565.94 59.45L568.44 58.78L570.98 58.21L573.56 57.74L576.15 57.37L578.77 57.08L581.44 56.88L584.14 56.76L586.75 56.73H663.62L669.44 19.05H730.66L724.83 56.73H808.05L809.44 56.74L810.87 56.76L812.3 56.81L813.73 56.87L815.13 56.95L816.52 57.05L817.89 57.17L819.27 57.31L820.65 57.47L821.99 57.65L823.34 57.85L824.69 58.08L825.97 58.31L827.3 58.57L828.61 58.86L830.01 59.19L831.65 59.63L833.41 60.2L835.14 60.86L836.81 61.59L838.43 62.39L840.02 63.27L841.57 64.23L843.06 65.23L844.49 66.29L845.91 67.42L847.27 68.6L848.58 69.83L849.84 71.1L855.95 77.67L865.03 19.08V19.08Z" fill="#00257A"/>
<path fill-rule="evenodd" clip-rule="evenodd" d="M675.45 70.68L681.28 33H714.49L708.66 70.68H741.03L736.77 98.22H704.4L698.53 136.15L698.38 137.23L698.25 138.26L698.15 139.24L698.08 140.19L698.03 141.09L698.02 141.95L698.03 142.76L698.07 143.54L698.13 144.27L698.21 144.96L698.32 145.6L698.45 146.2L698.6 146.75L698.78 147.27L698.96 147.74L699.16 148.16L699.67 149.03L700.22 149.79L700.83 150.45L701.5 151.03L702.23 151.53L703.04 151.96L703.93 152.31L704.87 152.58L705.45 152.66L706.21 152.77L706.99 152.87L707.79 152.97L708.61 153.05L709.46 153.13L710.32 153.19L711.21 153.26L712.12 153.31L713.06 153.36L714.01 153.4L714.99 153.44L715.99 153.46L717.01 153.49H718.06L719.13 153.5H724.9L720.76 180.25H692.91L690.94 180.21L689 180.1L687.13 179.92L685.31 179.67L683.56 179.34L681.88 178.93L680.26 178.46L678.71 177.9L677.21 177.26L675.79 176.55L674.44 175.76L673.16 174.89L671.96 173.94L670.82 172.91L669.77 171.81L668.8 170.64L667.91 169.4L667.1 168.12L666.36 166.78L665.71 165.39L665.14 163.95L664.65 162.46L664.23 160.92L663.9 159.33L663.64 157.69L663.45 156.01L663.34 154.29L663.32 152.51L663.36 150.7L663.48 148.84L663.68 146.94L663.95 145.02L671.19 98.22H587.94L586.52 98.24L585.22 98.31L584.02 98.43L582.9 98.6L581.89 98.8L580.98 99.04L580.17 99.31L579.46 99.61L578.85 99.93L578.33 100.25L577.89 100.59L577.52 100.94L577.21 101.3L576.95 101.68L576.72 102.12L576.6 102.4L576.15 105.28L576.07 106.09V106.72L576.13 107.27L576.26 107.75L576.44 108.17L576.68 108.55L577 108.92L577.4 109.27L577.92 109.6L578.55 109.92L579.32 110.2L580.21 110.45L581.24 110.64L582.4 110.79L583.69 110.88L585.14 110.91H609.88L610.83 110.92L611.78 110.94L612.73 110.97L613.66 111.02L614.57 111.08L615.49 111.16L616.38 111.25L617.26 111.35L618.14 111.47L619 111.6L619.85 111.74L620.69 111.9L621.52 112.08L622.34 112.27L623.15 112.47L623.96 112.69L625.51 113.17L627.03 113.73L628.49 114.35L629.89 115.05L631.24 115.81L632.54 116.65L633.76 117.54L634.94 118.52L636.05 119.57L637.09 120.7L638.04 121.89L638.91 123.16L639.69 124.48L640.39 125.88L641.01 127.34L641.54 128.84L641.78 129.65L641.99 130.46L642.17 131.28L642.33 132.11L642.46 132.95L642.57 133.81L642.65 134.68L642.71 135.56L642.74 136.46L642.75 137.36L642.73 138.27L642.69 139.2L642.62 140.15L642.53 141.09L642.41 142.05L642.28 143.03L642.09 144.18L641.88 145.31L641.66 146.42L641.41 147.51L641.15 148.58L640.87 149.64L640.57 150.67L640.26 151.69L639.92 152.69L639.56 153.67L639.19 154.62L638.79 155.56L638.38 156.49L637.94 157.38L637.49 158.26L637.02 159.12L636.12 160.66L635.24 162.1L634.38 163.45L633.54 164.72L632.69 165.9L631.86 167L631.04 168.01L630.22 168.95L629.35 169.84L628.41 170.73L627.41 171.62L626.33 172.51L625.17 173.4L623.94 174.3L622.64 175.21L621.24 176.15L620.42 176.66L619.55 177.14L618.67 177.58L617.76 177.99L616.82 178.36L615.88 178.7L614.89 179L613.9 179.27L612.88 179.5L611.84 179.7L610.79 179.87L609.71 180L608.61 180.11L607.49 180.19L606.35 180.23L605.21 180.25H532.52L536.78 152.71H596.93L598.57 152.67L600.06 152.57L601.42 152.39L602.65 152.15L603.76 151.85L604.74 151.5L605.59 151.11L606.32 150.68L606.94 150.23L607.48 149.75L607.95 149.22L608.36 148.63L608.71 147.97L609.02 147.22L609.28 146.35L609.48 145.38L609.58 144.47V143.67L609.5 142.96L609.34 142.35L609.12 141.8L608.83 141.3L608.44 140.84L607.95 140.41L607.35 139.99L606.62 139.62L605.74 139.28L604.72 138.99L603.54 138.76L602.24 138.59L600.77 138.48L599.15 138.45H575.58L574.33 138.44L573.15 138.43L572.03 138.42L570.98 138.4L569.99 138.37L569.07 138.33L568.21 138.29L567.41 138.24L566.59 138.18L565.7 138.09L564.75 137.99L563.73 137.86L562.63 137.71L561.47 137.54L560.23 137.34L558.88 137.13L557.45 136.85L556.03 136.49L554.66 136.05L553.32 135.53L552.03 134.95L550.78 134.28L549.58 133.54L548.42 132.71L547.28 131.76L546.24 130.69L545.29 129.53L544.45 128.26L543.71 126.89L543.07 125.44L542.53 123.9L542.09 122.29L541.91 121.42L541.75 120.57L541.61 119.69L541.5 118.8L541.41 117.88L541.34 116.96L541.3 116.01L541.28 115.05L541.29 114.06L541.31 113.07L541.36 112.05L541.43 111.02L541.52 109.97L541.65 108.91L541.78 107.82L541.95 106.71L542.31 104.58L542.74 102.5L543.25 100.48L543.82 98.51L544.46 96.6L545.17 94.75L545.95 92.96L546.79 91.24L547.72 89.56L548.71 87.95L549.79 86.41L550.93 84.93L552.14 83.52L553.42 82.18L554.77 80.91L556.2 79.72L557.68 78.6L559.23 77.55L560.84 76.58L562.51 75.69L564.24 74.87L566.02 74.13L567.86 73.46L569.75 72.87L571.7 72.35L573.7 71.9L575.76 71.53L577.87 71.22L580.03 70.99L582.24 70.82L584.51 70.72L586.82 70.68H675.45ZM467.36 179.33L465.91 179.08L464.49 178.81L463.1 178.5L461.74 178.17L460.41 177.8L459.11 177.41L457.84 176.98L456.6 176.53L455.39 176.04L454.21 175.53L453.06 174.98L451.94 174.41L450.85 173.8L449.79 173.17L448.76 172.5L447.77 171.8L446.81 171.07L445.88 170.31L444.97 169.52L444.11 168.7L443.28 167.84L442.47 166.96L441.71 166.05L440.97 165.12L440.28 164.16L439.62 163.19L438.99 162.19L438.38 161.18L437.81 160.15L437.27 159.1L436.76 158.03L436.28 156.94L435.82 155.83L435.4 154.71L435 153.56L434.64 152.4L434.31 151.21L434 150.01L433.73 148.79L433.48 147.55L433.27 146.29L433.08 145.02L432.93 143.73L432.8 142.42L432.71 141.09L432.64 139.75L432.6 138.39L432.59 137.01L432.61 135.62L432.66 134.2L432.73 132.77L432.84 131.33L432.98 129.86L433.14 128.38L433.34 126.88L433.56 125.37L433.8 123.86L434.06 122.39L434.33 120.93L434.62 119.5L434.93 118.09L435.26 116.7L435.6 115.34L435.96 114L436.34 112.68L436.73 111.38L437.14 110.11L437.57 108.86L438.02 107.63L438.48 106.42L438.96 105.24L439.46 104.08L439.98 102.94L440.51 101.83L441.06 100.73L441.63 99.66L442.23 98.62L442.83 97.59L443.46 96.59L444.11 95.62L444.78 94.66L445.46 93.73L446.17 92.83L446.88 91.95L447.63 91.09L448.39 90.26L449.17 89.45L449.96 88.68L451.48 87.26L452.98 85.92L454.48 84.63L455.98 83.41L457.47 82.25L458.96 81.16L460.45 80.13L461.93 79.16L463.41 78.25L464.88 77.41L466.36 76.63L467.83 75.92L469.3 75.28L470.76 74.7L472.22 74.19L473.66 73.76L475.06 73.38L476.44 73.03L477.85 72.71L479.25 72.4L480.67 72.12L482.1 71.87L483.54 71.65L484.99 71.44L486.45 71.27L487.92 71.11L489.4 70.98L490.89 70.87L492.39 70.79L493.9 70.73L495.41 70.69L496.93 70.68H539.58L535.32 98.22H495.34L494.31 98.24L493.31 98.26L492.36 98.3L491.41 98.34L490.51 98.4L489.64 98.47L488.79 98.55L487.97 98.63L487.19 98.72L486.44 98.83L485.71 98.94L485.02 99.07L484.36 99.2L483.74 99.33L483.18 99.47L482.1 99.8L481.12 100.18L480.2 100.62L479.32 101.14L478.48 101.72L477.69 102.38L476.92 103.12L476.1 104.04L475.65 104.55L475.26 105.02L474.89 105.52L474.54 106.04L474.21 106.59L473.88 107.18L473.57 107.79L473.27 108.44L472.99 109.12L472.73 109.83L472.48 110.57L472.26 111.34L472.16 111.7H518.46L514.14 139.62H467.81L467.78 140.03L467.75 140.81L467.74 141.56L467.76 142.27L467.79 142.95L467.86 143.58L467.94 144.19L468.04 144.77L468.17 145.3L468.3 145.79L468.47 146.26L468.64 146.7L468.82 147.08L469.3 147.89L469.83 148.62L470.42 149.27L471.08 149.87L471.82 150.4L472.64 150.88L473.56 151.3L474.5 151.64L474.94 151.74L475.54 151.86L476.18 151.97L476.85 152.08L477.57 152.18L478.31 152.27L479.09 152.35L479.91 152.43L480.77 152.49L481.66 152.55L482.59 152.6L483.56 152.64L484.56 152.67L485.59 152.69L486.66 152.71H526.89L522.63 180.25H479.98L478.31 180.23L476.66 180.19L475.03 180.12L473.44 180.02L471.88 179.89L470.34 179.73L468.83 179.54L467.36 179.33ZM372.47 180.25H339.45L356.41 70.68H405.1L406.68 70.7L408.22 70.74L409.71 70.81L411.15 70.91L412.55 71.04L413.89 71.2L415.19 71.4L416.43 71.62L417.63 71.87L418.78 72.16L419.89 72.48L420.95 72.83L421.96 73.22L422.92 73.65L423.84 74.11L424.72 74.62L426.24 75.66L427.63 76.82L428.85 78.1L429.91 79.48L430.8 80.98L431.51 82.58L432.04 84.27L432.36 86L432.47 86.9L432.54 87.8L432.61 88.73L432.64 89.69L432.65 90.67V91.7L432.62 92.76L432.58 93.84L432.51 94.96L432.43 96.12L432.32 97.31L432.19 98.54L432.05 99.79L431.88 101.09L431.7 102.42L431.5 103.77L428.98 120H397.14L398.89 108.7L399.17 106.81L399.38 105.11L399.55 103.6L399.65 102.27L399.7 101.14V100.22L399.66 99.52L399.59 99.05L399.49 98.71L399.38 98.43L399.25 98.18L399.08 97.96L398.88 97.76L398.65 97.58L398.36 97.41L398.2 97.34L397.95 97.3L397.37 97.22L396.82 97.14L396.28 97.06L395.76 96.99L395.26 96.93L394.77 96.88L394.32 96.83L393.86 96.79L393.31 96.75L392.68 96.72L391.95 96.7L391.14 96.67L390.25 96.66L389.27 96.65H385.4L372.47 180.25Z" fill="white"/>
<path fill-rule="evenodd" clip-rule="evenodd" d="M298.01 179.47C276.25 187.47 250.87 188.27 232.97 170.89L232.08 169.97L231.22 169.02C217.42 152.59 217.89 126.8 225.98 107.81C237.46 82.54 259.11 67.34 286.44 65.92L288 65.87C325.84 65.52 346.41 92.89 338.86 129.96L338.52 131.47L338.14 132.97C332.74 152.3 315.96 168.51 298.01 179.47Z" fill="#FFED00"/>
<path d="M264.84 116.31C265.78 110.09 269.09 104.61 273.66 100.8C278.29 96.94 284.25 94.74 290.43 95.09H290.46C291.05 95.13 291.75 95.21 292.55 95.33C298.14 96.18 302.86 99.06 306.11 103.17C309.32 107.24 311.06 112.48 310.73 118.14C310.7 118.77 310.61 119.52 310.48 120.36C308.89 130.86 303.29 140.12 295.54 146.57C287.73 153.07 277.71 156.79 267.33 156.19C266.25 156.13 265.06 156 263.82 155.81C254.68 154.41 246.96 149.72 241.65 142.99C236.36 136.29 233.5 127.63 234.04 118.29C234.11 117.15 234.24 115.91 234.44 114.56C236.68 99.78 244.56 86.75 255.49 77.65C266.47 68.51 280.55 63.27 295.12 64.11C296.69 64.2 298.33 64.38 300.03 64.64C312.74 66.59 323.47 73.11 330.84 82.45C338.18 91.76 342.17 103.82 341.43 116.87C341.33 118.5 341.14 120.25 340.86 122.11C337.97 141.17 327.8 157.97 313.7 169.71C299.6 181.45 281.54 188.19 262.85 187.18C236.75 183.57 220.69 165.35 220.32 136.65C222.02 143.14 224.96 149.04 228.92 154.07C235.98 163.03 246.32 169.28 258.62 171.17C260.11 171.4 261.73 171.56 263.48 171.66C278.27 172.51 292.64 167.15 303.89 157.78C315.19 148.37 323.33 134.96 325.63 119.81C325.81 118.63 325.94 117.37 326.01 116.02C326.54 106.82 323.82 98.44 318.8 92.08C313.8 85.74 306.47 81.31 297.75 79.97C296.71 79.81 295.56 79.69 294.29 79.62C283.69 79.01 273.39 82.86 265.32 89.59C257.2 96.35 251.34 105.99 249.69 116.86C249.59 117.53 249.51 118.3 249.47 119.14C249.16 124.63 250.75 129.61 253.71 133.36C256.65 137.09 260.97 139.7 266.12 140.49C266.7 140.58 267.38 140.64 268.19 140.69C274.59 141.05 280.83 138.71 285.73 134.64C290.68 130.52 294.24 124.66 295.24 118.06C295.26 117.9 295.28 117.63 295.31 117.29C295.41 115.53 294.91 113.96 294 112.8C293.12 111.68 291.81 110.89 290.26 110.65C290.15 110.64 289.92 110.61 289.57 110.6C287.37 110.48 285.21 111.31 283.49 112.73C281.72 114.21 280.44 116.29 280.09 118.61C278.43 127.79 263.86 126.53 264.84 116.31" fill="#E30613"/>
<path fill-rule="evenodd" clip-rule="evenodd" d="M49.83 108.75L50.13 106.96L50.44 105.2L50.76 103.47L51.08 101.77L51.41 100.09L51.75 98.44L52.09 96.82L52.44 95.22L52.8 93.65L53.16 92.11L53.53 90.6L53.91 89.12L54.29 87.66L54.68 86.23L55.09 84.8L55.52 83.35L55.99 81.9L56.46 80.44L56.97 78.97L57.5 77.49L58.05 76.01L58.62 74.51L59.23 73.01L59.85 71.5L60.5 69.98L61.17 68.45L61.87 66.91L62.58 65.37L63.32 63.82L64.11 62.23L64.97 60.58L65.94 58.95L66.98 57.36L68.11 55.82L69.32 54.31L70.6 52.85L71.96 51.44L73.4 50.08L74.92 48.76L76.5 47.48L78.16 46.26L79.89 45.08L81.69 43.94L83.56 42.85L85.51 41.8L87.52 40.81L88.58 40.31L89.67 39.83L90.78 39.37L91.91 38.93L93.07 38.51L94.25 38.1L95.46 37.71L96.69 37.33L97.94 36.98L99.22 36.63L100.53 36.31L101.85 36L103.2 35.7L104.58 35.42L105.98 35.16L107.4 34.91L108.85 34.68L110.33 34.46L111.83 34.26L113.35 34.07L114.9 33.9L116.48 33.75L118.08 33.6L119.7 33.48L121.35 33.36L123.03 33.27L124.73 33.19L126.46 33.12L128.21 33.07L129.98 33.03L131.79 33.01L133.61 33H181.52L176.77 63.68H125.11L124.09 63.71L123.09 63.74L122.09 63.79L121.09 63.86L120.1 63.94L119.12 64.04L118.15 64.15L117.18 64.27L116.22 64.41L115.28 64.56L114.33 64.72L113.4 64.91L112.47 65.1L111.55 65.31L110.72 65.52L109.15 66.02L107.61 66.59L106.15 67.19L104.77 67.83L103.47 68.51L102.25 69.22L101.12 69.97L100.05 70.76L99.05 71.59L98.11 72.44L97.23 73.32L96.43 74.24L95.69 75.18L95 76.16L94.38 77.17L93.79 78.25L93.22 79.41L92.65 80.58L92.12 81.73L91.61 82.86L91.14 83.96L90.7 85.04L90.29 86.1L89.91 87.12L89.56 88.13L89.24 89.14L88.95 90.14L88.68 91.14L88.45 92.07H150.28L145.6 122.35H83.65L74.69 180.25H38.74L49.24 112.41L49.53 110.57L49.83 108.75ZM775.88 153.5H806.75L809.14 138.05H780.22L779.42 138.06L778.65 138.08L777.89 138.12L777.16 138.17L776.43 138.24L775.73 138.32L775.03 138.41L774.36 138.52L773.7 138.64L773.06 138.78L772.44 138.93L771.82 139.09L771.23 139.26L770.65 139.45L770.09 139.65L769.63 139.83L768.79 140.24L768.16 140.66L767.63 141.15L767.15 141.74L766.7 142.48L766.3 143.39L765.96 144.48L765.69 145.8L765.58 146.68L765.53 147.5L765.54 148.24L765.6 148.89L765.71 149.46L765.86 149.96L766.04 150.39L766.28 150.79L766.57 151.19L766.9 151.57L767.24 151.89L767.59 152.17L767.96 152.41L768.34 152.61L768.75 152.77L769.21 152.91L769.76 153.04L770.42 153.16L771.15 153.26L771.95 153.35L772.83 153.42L773.78 153.47L774.8 153.5H775.88V153.5ZM811.76 70.75L812.99 70.81L814.2 70.88L815.4 70.97L816.59 71.07L817.76 71.19L818.91 71.33L820.05 71.48L821.18 71.65L822.29 71.84L823.39 72.04L824.47 72.26L825.54 72.49L826.62 72.74L827.71 73.04L828.82 73.4L829.91 73.82L830.98 74.29L832.03 74.81L833.07 75.39L834.1 76.02L835.1 76.7L836.08 77.43L837.05 78.21L838.01 79.04L838.95 79.92L839.87 80.85L840.77 81.83L841.66 82.86L842.56 83.96L843.44 85.17L844.26 86.48L844.98 87.87L845.62 89.34L846.17 90.88L846.64 92.49L847.02 94.18L847.32 95.94L847.54 97.76L847.68 99.65L847.74 101.61L847.72 103.64L847.62 105.74L847.45 107.91L847.2 110.15L846.88 112.44L836.38 180.3H760.56L758.61 180.27L756.69 180.17L754.84 179.99L753.04 179.75L751.3 179.44L749.63 179.06L748.02 178.6L746.47 178.07L744.98 177.46L743.56 176.78L742.19 176.03L740.91 175.21L739.68 174.31L738.53 173.33L737.45 172.28L736.49 171.21L735.54 170.13L734.63 168.94L733.8 167.69L733.07 166.38L732.41 165.01L731.84 163.59L731.36 162.11L730.96 160.58L730.64 159L730.42 157.37L730.27 155.69L730.21 153.97L730.23 152.2L730.33 150.38L730.51 148.52L730.77 146.64L731.23 143.69L731.58 142.38L731.91 141.26L732.26 140.15L732.62 139.07L732.99 138.01L733.38 136.97L733.78 135.95L734.2 134.96L734.63 133.99L735.08 133.04L735.55 132.1L736.04 131.19L736.53 130.31L737.05 129.45L737.59 128.6L738.16 127.76L739.31 126.2L740.56 124.7L741.89 123.28L743.3 121.95L744.78 120.71L746.35 119.56L747.97 118.51L749.64 117.57L750.5 117.13L751.34 116.72L752.18 116.32L753.03 115.94L753.88 115.58L754.74 115.23L755.61 114.9L756.47 114.59L757.33 114.3L758.2 114.02L759.08 113.76L759.96 113.51L760.84 113.28L761.73 113.07L762.63 112.87L763.53 112.69L764.43 112.53L765.36 112.38L766.3 112.24L767.27 112.11L768.25 111.99L769.25 111.88L770.27 111.78L771.31 111.69L772.37 111.61L773.46 111.54L774.57 111.48L775.69 111.44L776.84 111.4L778.01 111.38L779.2 111.36H813.11L813.14 110.88L813.17 110.08V109.32L813.15 108.6L813.1 107.92L813.03 107.27L812.94 106.66L812.82 106.08L812.69 105.55L812.54 105.05L812.36 104.59L812.17 104.16L811.97 103.78L811.45 102.96L810.89 102.24L810.27 101.6L809.6 101.04L808.85 100.54L808.03 100.11L807.14 99.75L806.13 99.44L805.59 99.31L805 99.18L804.37 99.06L803.71 98.95L803.02 98.84L802.3 98.74L801.55 98.65L800.77 98.57L799.96 98.5L799.13 98.44L798.27 98.39L797.38 98.34L796.46 98.31L795.51 98.29L794.53 98.28H745.1L749.36 70.75H809.26L810.52 70.78L811.76 70.75V70.75ZM876.87 33H911.06L888.28 180.25H854.09L876.87 33ZM191.99 33H226.18L203.39 180.25H169.21L191.99 33Z" fill="white"/>
</g>
<defs>
<clipPath id="clip0">
<rect width="938.4" height="314.29" fill="white"/>
</clipPath>
</defs>
</svg>
